<svg width="625" height="189" viewBox="0 0 625 189" fill="none" xmlns="http://www.w3.org/2000/svg">
<g filter="url(#filter0_dd)">
<path d="M18.795 43.2239L19.9438 43.1387C21.7628 43.0038 22.7398 43.8458 22.8747 45.6648L28.3764 125.685C28.8343 130.561 30.4551 134.243 33.2388 136.732C36.1183 139.214 39.7121 140.295 44.0202 139.975L47.6104 139.709C48.3763 139.652 49.0199 139.893 49.5412 140.432C50.1582 140.964 50.4915 141.565 50.5412 142.235L50.6265 143.384C50.7685 145.299 48.6854 146.416 44.3772 146.735C38.0586 147.204 32.8425 145.665 28.729 142.12C24.6084 138.479 22.2446 133.215 21.6376 126.329L16.1252 46.1654C16.1818 44.3322 17.0717 43.3517 18.795 43.2239ZM10.1871 77.0733L13.6336 76.8177C14.4952 76.7538 15.1867 76.9913 15.708 77.5302C16.325 78.062 16.6619 78.7109 16.7187 79.4768L16.7826 80.3384C16.8394 81.1043 16.6019 81.7958 16.0701 82.4128C15.634 83.0227 14.9852 83.3596 14.1235 83.4235L10.677 83.6791C9.81537 83.743 9.07604 83.5091 8.45901 82.9773C7.93772 82.4384 7.64868 81.7859 7.59187 81.02L7.52797 80.1584C7.47116 79.3925 7.6608 78.7046 8.09688 78.0947C8.6287 77.4777 9.32543 77.1372 10.1871 77.0733ZM29.4302 75.6461L40.057 74.8579C40.8229 74.8011 41.4665 75.0422 41.9878 75.5811C42.6048 76.1129 42.9417 76.7618 42.9985 77.5276L43.0624 78.3893C43.1193 79.1552 42.8817 79.8466 42.3499 80.4637C41.9138 81.0736 41.3129 81.407 40.547 81.4638L29.9201 82.2519C29.1543 82.3087 28.4628 82.0712 27.8458 81.5394C27.2287 81.0076 26.8918 80.3587 26.835 79.5928L26.7711 78.7312C26.7143 77.9653 26.9518 77.2738 27.4836 76.6568C28.0155 76.0398 28.6643 75.7029 29.4302 75.6461Z" fill="black"/>
<path d="M94.1311 71.0854C95.9517 70.9748 96.9202 71.8778 97.0366 73.7943L97.0977 74.8004C97.1442 75.567 96.8974 76.2552 96.3574 76.8651C95.9132 77.4691 95.3078 77.7944 94.5412 77.8409C89.0792 78.1725 84.8036 79.8266 81.7143 82.8033C78.625 85.7799 77.2549 90.143 77.6039 95.8924L80.3699 141.457C80.4223 142.319 80.1784 143.055 79.6384 143.665C79.0925 144.179 78.4363 144.459 77.6697 144.506L76.6636 144.567C75.897 144.613 75.2117 144.415 74.6077 143.97C73.9978 143.43 73.6667 142.729 73.6144 141.867L70.8483 96.3025C70.3713 88.445 72.2175 82.418 76.3869 78.2217C80.5505 73.9295 86.4652 71.5507 94.1311 71.0854Z" fill="black"/>
<path d="M120.282 69.8484L122.727 69.7267C123.878 69.6694 124.657 69.8709 125.064 70.3312C125.472 70.7915 125.699 71.5011 125.747 72.4599L129.048 138.762C129.091 139.625 128.839 140.358 128.293 140.962C127.741 141.47 127.082 141.743 126.315 141.781L123.87 141.903C123.103 141.941 122.42 141.735 121.821 141.284C121.217 140.738 120.893 140.033 120.85 139.17L117.549 72.8681C117.487 71.6216 117.688 70.8426 118.154 70.5311C118.71 70.119 119.419 69.8914 120.282 69.8484ZM113.083 38.1993C113.999 37.2886 116.183 36.7473 119.635 36.5754C123.086 36.4036 125.363 36.7708 126.466 37.6771C127.564 38.4875 128.184 40.3309 128.327 43.2074L128.42 45.077C128.583 48.337 128.158 50.4247 127.146 51.3402C126.135 52.2556 123.903 52.7993 120.451 52.9711C116.999 53.143 114.773 52.8214 113.771 52.0062C112.769 51.191 112.187 49.1534 112.025 45.8934L111.932 44.0238C111.779 40.9556 112.163 39.0141 113.083 38.1993ZM123.315 43.8895C123.267 42.9307 122.996 42.3194 122.503 42.0556C122.1 41.6912 121.228 41.5424 119.885 41.6092C118.639 41.6713 117.831 41.8557 117.462 42.1624C117.093 42.4692 116.934 43.1499 116.987 44.2046L117.058 45.6428C117.111 46.6975 117.336 47.3591 117.734 47.6277C118.132 47.8962 119.002 47.997 120.344 47.9302C121.687 47.8634 122.542 47.6766 122.912 47.3698C123.281 47.0631 123.439 46.3824 123.387 45.3277L123.315 43.8895Z" fill="black"/>
<path d="M201.871 66.6904L203.166 66.645C204.221 66.608 204.953 66.9186 205.36 67.5767C205.86 68.1356 206.118 68.6549 206.135 69.1346C206.148 69.5183 206.114 69.9038 206.031 70.2909L184.54 135.451C183.483 138.178 181.659 139.587 179.069 139.678C176.478 139.768 174.706 138.534 173.752 135.974L147.747 72.3332C147.638 71.9528 147.576 71.5707 147.563 71.1869C147.546 70.7072 147.719 70.1728 148.083 69.5837C148.539 68.8953 149.295 68.5327 150.35 68.4957L151.645 68.4503C152.797 68.41 153.73 69.0016 154.445 70.2253L179.049 130.889L199.202 68.6571C199.734 67.3896 200.623 66.7341 201.871 66.6904Z" fill="black"/>
<path d="M232.925 65.8455L235.373 65.7958C236.525 65.7724 237.297 65.9967 237.691 66.4689C238.085 66.941 238.291 67.6569 238.311 68.6167L239.658 134.987C239.676 135.851 239.402 136.577 238.838 137.164C238.272 137.656 237.605 137.909 236.837 137.925L234.39 137.975C233.622 137.99 232.945 137.764 232.36 137.296C231.772 136.731 231.47 136.017 231.452 135.154L230.105 68.7833C230.079 67.5356 230.304 66.7629 230.778 66.4652C231.346 66.0696 232.062 65.863 232.925 65.8455ZM226.662 33.998C227.604 33.1147 229.803 32.638 233.258 32.5678C236.713 32.4977 238.979 32.9318 240.054 33.8702C241.127 34.7126 241.693 36.5735 241.752 39.4529L241.79 41.3245C241.856 44.5878 241.37 46.6621 240.332 47.5474C239.293 48.4326 237.047 48.9103 233.591 48.9805C230.136 49.0506 227.92 48.6635 226.942 47.8192C225.965 46.9748 225.443 44.921 225.377 41.6577L225.339 39.7861C225.277 36.7147 225.718 34.7854 226.662 33.998ZM236.721 39.9871C236.702 39.0273 236.449 38.4083 235.964 38.1301C235.572 37.754 234.704 37.5795 233.36 37.6068C232.113 37.6321 231.3 37.7927 230.922 38.0884C230.544 38.3841 230.365 39.0599 230.387 40.1157L230.416 41.5554C230.437 42.6112 230.643 43.2791 231.033 43.5593C231.422 43.8394 232.289 43.9659 233.633 43.9386C234.977 43.9113 235.838 43.7498 236.216 43.4541C236.594 43.1583 236.772 42.4826 236.751 41.4268L236.721 39.9871Z" fill="black"/>
<path d="M266.328 88.8259C266.288 81.242 268.561 75.3738 273.147 71.2214C277.733 67.069 283.722 64.9732 291.114 64.934C298.506 64.8948 304.469 66.9751 309.003 71.1751C313.537 75.2791 315.824 81.0751 315.864 88.563L316.032 120.243C316.052 123.986 316.353 126.577 316.937 128.014C317.616 129.354 318.869 130.26 320.695 130.73L322.282 131.154C323.723 131.434 324.446 132.054 324.452 133.014L324.46 134.598C324.469 136.23 323.513 137.051 321.593 137.061C316.889 137.086 313.666 135.711 311.923 132.937C310.18 130.162 309.294 125.894 309.263 120.134L309.096 88.5989C309.067 83.127 307.364 78.9599 303.989 76.0978C300.613 73.1397 296.334 71.6744 291.15 71.7019C285.966 71.7294 281.654 73.2403 278.214 76.2346C274.773 79.1329 273.067 83.318 273.096 88.7899L273.227 113.414C273.257 119.078 274.672 123.342 277.471 126.207C280.366 129.072 284.454 130.49 289.734 130.462C295.109 130.434 299.514 128.25 302.947 123.912C303.614 123.044 304.524 122.608 305.676 122.602C306.924 122.595 307.792 123.31 308.279 124.748C308.574 125.898 308.435 126.907 307.864 127.774C303.769 134.036 297.833 137.187 290.057 137.229C282.378 137.269 276.511 135.236 272.457 131.13C268.499 127.023 266.5 121.177 266.46 113.594L266.328 88.8259Z" fill="black"/>
<path d="M348.887 36.4629L364.437 36.7043C375.956 36.8831 384.33 38.5973 389.56 41.8469C396.881 46.4731 400.465 53.7296 400.312 63.6164C400.048 68.2208 398.685 72.5682 396.221 76.6584C393.757 80.7487 389.823 83.712 384.417 85.5483C389.2 86.6787 393.105 88.7555 396.13 91.7789C399.253 94.7077 401.319 97.6681 402.329 100.66C403.339 103.652 403.811 107.212 403.747 111.339C403.683 115.467 402.611 119.627 400.529 123.819C398.544 128.013 395.662 131.184 391.885 133.334C386.366 136.321 378.567 137.736 368.488 137.579L347.61 137.255C345.115 137.216 343.394 136.758 342.447 135.879C341.598 134.906 341.194 133.123 341.234 130.531L342.597 42.702C342.636 40.2063 343.046 38.5325 343.828 37.6805C344.705 36.83 346.391 36.4241 348.887 36.4629ZM364.181 43.9012L349.783 43.6777L348.44 130.211L370.901 130.56C387.795 130.822 396.349 124.09 396.562 110.364C396.65 104.7 394.374 99.7686 389.734 95.568C385.193 91.273 378.698 89.0599 370.251 88.9288L360.604 88.7791C359.548 88.7627 358.781 88.7507 358.301 88.7433C357.822 88.6399 357.251 88.3429 356.586 87.8526C356.019 87.2677 355.745 86.3513 355.765 85.1035C355.786 83.7597 356.279 82.9032 357.245 82.5342C358.307 82.1666 359.75 81.997 361.573 82.0253L370.644 82.1661C378.611 82.2898 384.305 80.4099 387.726 76.5266C391.242 72.6447 393.039 68.256 393.115 63.3606C393.194 58.2732 391.628 54.0244 388.416 50.6142C384.546 46.3296 376.468 44.0919 364.181 43.9012Z" fill="black"/>
<path d="M428.899 33.7884L430.05 33.8257C431.873 33.8847 432.755 34.8257 432.696 36.6488L430.1 116.815C429.768 127.081 433.967 132.356 442.699 132.639L445.002 132.713C445.769 132.738 446.384 133.046 446.845 133.638C447.402 134.232 447.669 134.865 447.648 135.537L447.61 136.688C447.548 138.607 445.79 139.51 442.336 139.399C435.811 139.187 430.93 137.156 427.693 133.306C424.456 129.455 423.002 123.933 423.331 116.74L425.932 36.4297C425.991 34.6067 426.98 33.7262 428.899 33.7884Z" fill="black"/>
<path d="M476.585 68.5374L479.031 68.6435C480.182 68.6935 480.939 68.9666 481.301 69.4628C481.664 69.959 481.825 70.6866 481.783 71.6457L478.904 137.967C478.867 138.83 478.548 139.537 477.947 140.088C477.351 140.542 476.669 140.753 475.902 140.72L473.456 140.613C472.689 140.58 472.028 140.311 471.473 139.807C470.923 139.206 470.666 138.474 470.704 137.611L473.583 71.2898C473.637 70.0429 473.91 69.2861 474.402 69.0192C474.994 68.6605 475.722 68.4999 476.585 68.5374ZM472.361 36.3559C473.357 35.5343 475.582 35.1985 479.035 35.3484C482.488 35.4983 484.721 36.0757 485.734 37.0806C486.751 37.9896 487.198 39.8827 487.073 42.76L486.992 44.6302C486.85 47.8912 486.233 49.9303 485.141 50.7477C484.048 51.5651 481.776 51.8988 478.323 51.7489C474.87 51.5991 472.683 51.0717 471.761 50.1669C470.84 49.2621 470.45 47.1792 470.591 43.9183L470.672 42.048C470.806 38.9789 471.368 37.0815 472.361 36.3559ZM482.019 42.973C482.061 42.0139 481.848 41.3801 481.381 41.0715C481.014 40.6712 480.159 40.4419 478.816 40.3836C477.569 40.3295 476.748 40.438 476.352 40.7091C475.956 40.9801 475.735 41.6432 475.689 42.6982L475.626 44.1368C475.581 45.1918 475.743 45.8715 476.114 46.1759C476.486 46.4803 477.343 46.6616 478.685 46.7199C480.028 46.7782 480.897 46.6718 481.294 46.4008C481.69 46.1297 481.911 45.4666 481.956 44.4116L482.019 42.973Z" fill="black"/>
<path d="M517.217 37.4661L518.367 37.5297C520.188 37.6303 521.048 38.5912 520.948 40.4125L516.092 120.474C515.918 125.368 517.05 129.229 519.49 132.056C522.026 134.888 525.45 136.423 529.764 136.661L533.358 136.86C534.125 136.902 534.732 137.224 535.18 137.826C535.723 138.433 535.976 139.072 535.939 139.743L535.876 140.893C535.77 142.81 533.56 143.649 529.247 143.411C522.92 143.062 517.946 140.864 514.324 136.818C510.707 132.676 509.041 127.152 509.326 120.245L514.19 40.0391C514.482 38.2285 515.491 37.3708 517.217 37.4661ZM504.318 69.9241L507.769 70.1147C508.632 70.1624 509.287 70.487 509.734 71.0886C510.278 71.6955 510.528 72.3824 510.486 73.1492L510.438 74.0119C510.396 74.7787 510.071 75.4338 509.464 75.9771C508.953 76.5258 508.266 76.7763 507.404 76.7286L503.953 76.538C503.09 76.4903 502.387 76.163 501.844 75.5561C501.397 74.9545 501.194 74.2703 501.236 73.5035L501.284 72.6408C501.326 71.874 501.603 71.2162 502.114 70.6676C502.721 70.1242 503.456 69.8764 504.318 69.9241ZM523.585 70.9885L534.225 71.5763C534.992 71.6187 535.599 71.9407 536.046 72.5423C536.59 73.1492 536.84 73.836 536.798 74.6029L536.75 75.4656C536.708 76.2324 536.383 76.8875 535.776 77.4308C535.265 77.9795 534.626 78.2326 533.859 78.1902L523.22 77.6024C522.453 77.5601 521.798 77.2354 521.254 76.6285C520.711 76.0216 520.461 75.3348 520.503 74.5679L520.551 73.7052C520.593 72.9384 520.918 72.2833 521.525 71.74C522.131 71.1966 522.818 70.9461 523.585 70.9885Z" fill="black"/>
<path d="M564.655 73.4135L602.717 76.1501C606.547 76.4255 608.342 78.2389 608.101 81.5902C607.997 83.0265 607.053 84.7873 605.267 86.8726L565.148 138.849L601.773 141.483C603.593 141.613 604.437 142.589 604.306 144.408L604.223 145.557C604.086 147.472 603.107 148.364 601.288 148.233L561.933 145.404C560.306 145.287 559.047 144.715 558.159 143.689C557.27 142.662 556.877 141.431 556.981 139.995C557.084 138.558 558.032 136.75 559.825 134.569L599.503 82.7045L564.17 80.1641C562.351 80.0332 561.506 79.0582 561.637 77.2389L561.72 76.0899C561.857 74.1748 562.836 73.2827 564.655 73.4135Z" fill="black"/>
</g>
<defs>
<filter id="filter0_dd" x="3.51815" y="32.5605" width="613.604" height="124.685" filterUnits="userSpaceOnUse" color-interpolation-filters="sRGB">
<feFlood flood-opacity="0" result="BackgroundImageFix"/>
<feColorMatrix in="SourceAlpha" type="matrix" values="0 0 0 0 0 0 0 0 0 0 0 0 0 0 0 0 0 0 127 0" result="hardAlpha"/>
<feOffset dx="5" dy="5"/>
<feGaussianBlur stdDeviation="2"/>
<feComposite in2="hardAlpha" operator="out"/>
<feColorMatrix type="matrix" values="0 0 0 0 0.960784 0 0 0 0 0.435294 0 0 0 0 0.678431 0 0 0 0.25 0"/>
<feBlend mode="normal" in2="BackgroundImageFix" result="effect1_dropShadow"/>
<feColorMatrix in="SourceAlpha" type="matrix" values="0 0 0 0 0 0 0 0 0 0 0 0 0 0 0 0 0 0 127 0" result="hardAlpha"/>
<feOffset dy="4"/>
<feGaussianBlur stdDeviation="2"/>
<feComposite in2="hardAlpha" operator="out"/>
<feColorMatrix type="matrix" values="0 0 0 0 0 0 0 0 0 0 0 0 0 0 0 0 0 0 0.25 0"/>
<feBlend mode="normal" in2="effect1_dropShadow" result="effect2_dropShadow"/>
<feBlend mode="normal" in="SourceGraphic" in2="effect2_dropShadow" result="shape"/>
</filter>
</defs>
</svg>
