<svg width="638" height="189" viewBox="0 0 638 189" fill="none" xmlns="http://www.w3.org/2000/svg">
<g filter="url(#filter0_dd)">
<path d="M18.6368 43.245L19.7858 43.1615C21.605 43.0294 22.5835 43.8727 22.7213 45.6915L28.3477 125.702C28.8132 130.577 30.4401 134.261 33.2283 136.753C36.1122 139.239 39.7085 140.325 44.0172 140.012L47.6077 139.751C48.3737 139.696 49.0178 139.938 49.54 140.477C50.158 141.01 50.4924 141.611 50.5431 142.281L50.6301 143.43C50.7751 145.345 48.6933 146.458 44.3847 146.771C38.0653 147.23 32.8457 145.684 28.7258 142.133C24.5986 138.487 22.2262 133.221 21.6084 126.336L15.971 46.1818C16.0248 44.3491 16.9134 43.3702 18.6368 43.245ZM10.0792 77.0736L13.5261 76.8233C14.3879 76.7607 15.0799 76.9992 15.6021 77.5388C16.2201 78.0714 16.5581 78.7206 16.6161 79.4864L16.6813 80.3479C16.7393 81.1137 16.5028 81.8047 15.9718 82.4208C15.5366 83.0299 14.8881 83.3658 14.0264 83.4283L10.5795 83.6787C9.71774 83.7413 8.97788 83.5063 8.35989 82.9736C7.83765 82.4341 7.54754 81.7814 7.48954 81.0155L7.42429 80.154C7.36629 79.3882 7.55491 78.7007 7.99014 78.0916C8.52113 77.4755 9.21749 77.1362 10.0792 77.0736ZM29.3245 75.6758L39.9525 74.9039C40.7185 74.8483 41.3626 75.0902 41.8849 75.6298C42.5028 76.1624 42.8408 76.8117 42.8988 77.5775L42.9641 78.439C43.0221 79.2048 42.7856 79.8958 42.2546 80.5118C41.8194 81.121 41.2188 81.4533 40.4528 81.509L29.8248 82.2809C29.0588 82.3365 28.3668 82.098 27.7488 81.5654C27.1308 81.0328 26.7928 80.3836 26.7348 79.6177L26.6696 78.7562C26.6116 77.9904 26.8481 77.2995 27.3791 76.6834C27.9101 76.0673 28.5585 75.7314 29.3245 75.6758Z" fill="white"/>
<path d="M95.1812 71.1235C97.0019 71.0153 97.9717 71.9193 98.0905 73.8356L98.1529 74.8417C98.2004 75.6082 97.9545 76.296 97.4152 76.9051C96.9716 77.5085 96.3666 77.833 95.5999 77.8786C90.1376 78.2033 85.8634 79.8518 82.7774 82.8242C79.6914 85.7966 78.3266 90.1572 78.683 95.9062L81.5073 141.467C81.5608 142.329 81.3178 143.065 80.7785 143.674C80.2332 144.187 79.5772 144.467 78.8106 144.512L77.8043 144.572C77.0377 144.618 76.352 144.418 75.7473 143.973C75.1367 143.432 74.8047 142.731 74.7512 141.868L71.9269 96.3078C71.4398 88.4509 73.2787 82.4272 77.4433 78.2367C81.6021 73.9503 87.5147 71.5793 95.1812 71.1235Z" fill="white"/>
<path d="M122.337 69.8585L124.782 69.7392C125.933 69.6831 126.712 69.8854 127.12 70.3461C127.528 70.8068 127.756 71.5165 127.805 72.4753L131.176 138.774C131.22 139.636 130.969 140.37 130.423 140.973C129.872 141.48 129.213 141.753 128.445 141.79L126 141.909C125.233 141.947 124.55 141.74 123.95 141.289C123.346 140.741 123.021 140.036 122.978 139.173L119.606 72.875C119.543 71.6286 119.744 70.8499 120.209 70.5389C120.764 70.1274 121.474 69.9005 122.337 69.8585ZM115.104 38.2052C116.019 37.2956 118.203 36.7566 121.654 36.5883C125.106 36.42 127.384 36.7895 128.487 37.6968C129.586 38.5082 130.209 40.3521 130.355 43.2284L130.45 45.098C130.616 48.3578 130.193 50.4448 129.182 51.3591C128.171 52.2735 125.94 52.8148 122.488 52.9831C119.036 53.1514 116.809 52.8275 115.806 52.0114C114.803 51.1953 114.219 49.1573 114.053 45.8975L113.958 44.0279C113.802 40.9599 114.184 39.019 115.104 38.2052ZM125.343 43.9053C125.294 42.9466 125.023 42.335 124.529 42.0708C124.125 41.706 123.253 41.5563 121.91 41.6218C120.664 41.6826 119.856 41.8661 119.487 42.1725C119.118 42.4788 118.961 43.1593 119.014 44.2139L119.087 45.6521C119.141 46.7067 119.367 47.3685 119.765 47.6374C120.163 47.9063 121.034 48.0081 122.376 47.9426C123.718 47.8771 124.574 47.6912 124.943 47.3849C125.312 47.0786 125.469 46.3981 125.416 45.3435L125.343 43.9053Z" fill="white"/>
<path d="M204.684 66.7314L205.979 66.6869C207.035 66.6507 207.766 66.9618 208.174 67.6202C208.674 68.1794 208.933 68.6988 208.95 69.1785C208.964 69.5623 208.93 69.9477 208.847 70.3347L187.403 135.476C186.348 138.202 184.525 139.609 181.935 139.698C179.344 139.787 177.571 138.551 176.615 135.991L150.562 72.3347C150.452 71.9543 150.39 71.5722 150.377 71.1884C150.36 70.7087 150.533 70.1745 150.896 69.5857C151.351 68.8976 152.107 68.5355 153.162 68.4993L154.458 68.4549C155.609 68.4153 156.543 69.0077 157.259 70.2318L181.908 130.91L202.017 68.696C202.548 67.429 203.437 66.7742 204.684 66.7314Z" fill="white"/>
<path d="M237.363 65.8504L239.81 65.8017C240.962 65.7788 241.735 66.0035 242.129 66.4758C242.523 66.948 242.73 67.6641 242.749 68.6239L244.125 134.994C244.143 135.857 243.87 136.583 243.306 137.17C242.74 137.662 242.073 137.915 241.306 137.93L238.858 137.979C238.09 137.994 237.413 137.768 236.828 137.299C236.24 136.735 235.937 136.021 235.919 135.157L234.543 68.787C234.517 67.5393 234.741 66.7667 235.215 66.4692C235.783 66.0738 236.499 65.8676 237.363 65.8504ZM231.085 34.0009C232.027 33.118 234.226 32.6422 237.681 32.5735C241.136 32.5048 243.402 32.9399 244.478 33.8787C245.551 34.7215 246.118 36.5826 246.178 39.462L246.217 41.3336C246.284 44.5969 245.799 46.6709 244.761 47.5557C243.723 48.4405 241.477 48.9173 238.021 48.986C234.566 49.0547 232.35 48.6667 231.372 47.8219C230.394 46.9772 229.871 44.9232 229.804 41.6599L229.765 39.7883C229.701 36.7169 230.141 34.7878 231.085 34.0009ZM241.148 39.9941C241.128 39.0343 240.875 38.4152 240.389 38.1368C239.997 37.7605 239.129 37.5857 237.786 37.6124C236.538 37.6372 235.725 37.7974 235.347 38.093C234.969 38.3886 234.791 39.0642 234.813 40.12L234.843 41.5597C234.865 42.6155 235.071 43.2835 235.46 43.5638C235.85 43.8441 236.717 43.9709 238.061 43.9442C239.405 43.9175 240.265 43.7563 240.643 43.4608C241.021 43.1652 241.199 42.4895 241.178 41.4337L241.148 39.9941Z" fill="white"/>
<path d="M271.527 88.827C271.486 81.2431 273.758 75.3752 278.344 71.2233C282.929 67.0714 288.918 64.9763 296.31 64.9378C303.702 64.8994 309.665 66.9805 314.2 71.1809C318.734 75.2854 321.022 81.0816 321.062 88.5695L321.234 120.249C321.254 123.993 321.556 126.583 322.14 128.02C322.819 129.361 324.072 130.266 325.899 130.737L327.485 131.161C328.927 131.441 329.65 132.061 329.655 133.021L329.664 134.605C329.673 136.237 328.717 137.058 326.797 137.068C322.093 137.093 318.87 135.718 317.127 132.943C315.384 130.168 314.497 125.9 314.465 120.14L314.294 88.6047C314.265 83.1328 312.562 78.9656 309.187 76.1031C305.811 73.1446 301.531 71.6788 296.347 71.7057C291.163 71.7327 286.851 73.2431 283.411 76.237C279.971 79.1349 278.265 83.3199 278.295 88.7918L278.428 113.415C278.459 119.079 279.874 123.344 282.674 126.21C285.569 129.075 289.657 130.493 294.937 130.466C300.313 130.438 304.717 128.255 308.15 123.917C308.817 123.05 309.727 122.613 310.879 122.607C312.127 122.6 312.995 123.316 313.482 124.753C313.777 125.904 313.638 126.913 313.067 127.78C308.973 134.041 303.038 137.192 295.262 137.232C287.582 137.272 281.715 135.239 277.66 131.132C273.702 127.024 271.702 121.178 271.661 113.595L271.527 88.827Z" fill="white"/>
<path d="M355.769 36.4583L371.319 36.6947C382.838 36.8698 391.212 38.5813 396.441 41.8292C403.76 46.453 407.342 53.7083 407.185 63.595C406.92 68.1995 405.555 72.5473 403.09 76.6383C400.625 80.7293 396.689 83.6938 391.283 85.5318C396.066 86.6607 399.97 88.7363 402.994 91.7586C406.116 94.6864 408.181 97.6461 409.19 100.638C410.199 103.629 410.67 107.189 410.605 111.317C410.54 115.444 409.466 119.604 407.383 123.797C405.396 127.991 402.513 131.164 398.735 133.315C393.215 136.303 385.415 137.721 375.337 137.567L354.459 137.25C351.963 137.212 350.242 136.754 349.296 135.875C348.447 134.902 348.044 133.12 348.085 130.528L349.477 42.6994C349.517 40.2037 349.927 38.5298 350.709 37.6776C351.586 36.8268 353.273 36.4204 355.769 36.4583ZM371.061 43.8916L356.662 43.6728L355.291 130.206L377.752 130.547C394.646 130.804 403.202 124.069 403.42 110.343C403.509 104.68 401.235 99.7488 396.597 95.5498C392.057 91.2563 385.563 89.0453 377.116 88.9169L367.469 88.7702C366.413 88.7542 365.645 88.7425 365.165 88.7352C364.687 88.6319 364.115 88.3352 363.451 87.845C362.884 87.2604 362.611 86.3441 362.631 85.0963C362.652 83.7524 363.146 82.8958 364.112 82.5265C365.174 82.1586 366.616 81.9885 368.44 82.0162L377.511 82.1541C385.478 82.2752 391.173 80.3936 394.595 76.5091C398.113 72.6262 399.911 68.237 399.988 63.3416C400.069 58.2542 398.504 54.006 395.294 50.5968C391.425 46.3135 383.347 44.0784 371.061 43.8916Z" fill="white"/>
<path d="M437.486 33.779L438.638 33.8155C440.461 33.8733 441.342 34.8137 441.282 36.6367L438.631 116.801C438.291 127.067 442.487 132.339 451.219 132.616L453.522 132.689C454.289 132.713 454.904 133.021 455.364 133.612C455.921 134.206 456.188 134.838 456.166 135.51L456.128 136.661C456.065 138.58 454.306 139.485 450.851 139.376C444.327 139.169 439.447 137.141 436.212 133.293C432.978 129.444 431.528 123.923 431.862 116.73L434.517 36.4222C434.577 34.5992 435.567 33.7181 437.486 33.779Z" fill="white"/>
<path d="M486.179 68.523L488.624 68.627C489.775 68.6759 490.532 68.9483 490.894 69.4441C491.257 69.94 491.417 70.6674 491.374 71.6265L488.434 137.945C488.396 138.809 488.076 139.516 487.475 140.067C486.879 140.522 486.197 140.733 485.429 140.7L482.984 140.596C482.216 140.564 481.556 140.295 481.001 139.791C480.451 139.191 480.195 138.46 480.234 137.597L483.174 71.2779C483.229 70.0311 483.503 69.274 483.995 69.0067C484.588 68.6475 485.315 68.4863 486.179 68.523ZM481.983 36.3478C482.981 35.5255 485.206 35.1877 488.659 35.3345C492.112 35.4812 494.344 36.0566 495.357 37.0605C496.374 37.9685 496.818 39.8611 496.691 42.7383L496.608 44.6084C496.463 47.8692 495.844 49.9088 494.751 50.7271C493.658 51.5454 491.385 51.8811 487.932 51.7344C484.479 51.5876 482.292 51.0622 481.371 50.1583C480.45 49.2544 480.062 47.172 480.207 43.9112L480.29 42.041C480.426 38.972 480.99 37.0743 481.983 36.3478ZM491.636 42.9558C491.679 41.9967 491.467 41.3631 491 41.055C490.633 40.6551 489.778 40.4266 488.436 40.3695C487.189 40.3165 486.367 40.4257 485.971 40.6971C485.574 40.9685 485.353 41.6317 485.306 42.6867L485.242 44.1253C485.195 45.1802 485.357 45.8597 485.728 46.1638C486.099 46.4678 486.956 46.6483 488.299 46.7054C489.642 46.7625 490.511 46.6553 490.908 46.3839C491.304 46.1125 491.526 45.4493 491.572 44.3944L491.636 42.9558Z" fill="white"/>
<path d="M527.604 37.4455L528.754 37.5078C530.575 37.6063 531.435 38.5661 531.332 40.3872L526.383 120.445C526.203 125.338 527.331 129.197 529.768 132.02C532.301 134.849 535.724 136.38 540.037 136.614L543.632 136.808C544.399 136.85 545.006 137.171 545.453 137.772C545.995 138.378 546.248 139.017 546.21 139.688L546.145 140.838C546.037 142.755 543.826 143.597 539.512 143.363C533.186 143.021 528.213 140.829 524.595 136.788C520.982 132.651 519.323 127.129 519.616 120.223L524.574 40.0216C524.868 38.2109 525.878 37.3522 527.604 37.4455ZM514.666 69.9139L518.117 70.1006C518.98 70.1473 519.635 70.4712 520.082 71.0722C520.624 71.6784 520.874 72.3649 520.831 73.1316L520.782 73.9943C520.739 74.7611 520.413 75.4164 519.806 75.9604C519.294 76.5096 518.607 76.7608 517.744 76.7141L514.293 76.5274C513.43 76.4807 512.728 76.1543 512.185 75.5481C511.738 74.9471 511.536 74.2632 511.58 73.4964L511.628 72.6338C511.671 71.867 511.949 71.209 512.461 70.6599C513.068 70.1159 513.804 69.8672 514.666 69.9139ZM533.934 70.9564L544.574 71.5321C545.341 71.5736 545.948 71.8948 546.395 72.4958C546.938 73.102 547.188 73.7885 547.144 74.5553L547.096 75.4179C547.052 76.1847 546.727 76.8401 546.119 77.3841C545.608 77.9332 544.968 78.187 544.201 78.1456L533.561 77.5699C532.794 77.5284 532.139 77.2045 531.597 76.5983C531.054 75.9921 530.804 75.3056 530.847 74.5388L530.896 73.6762C530.939 72.9094 531.265 72.2541 531.872 71.7101C532.48 71.1661 533.167 70.9149 533.934 70.9564Z" fill="white"/>
<path d="M576.165 73.3906L614.231 76.0708C618.062 76.3405 619.854 78.1509 619.608 81.5018C619.502 82.938 618.555 84.6998 616.765 86.7872L576.56 138.812L613.189 141.391C615.009 141.519 615.852 142.492 615.718 144.311L615.634 145.46C615.493 147.375 614.513 148.269 612.694 148.141L573.335 145.369C571.707 145.255 570.45 144.685 569.562 143.66C568.675 142.635 568.284 141.405 568.389 139.969C568.495 138.532 569.446 136.723 571.243 134.54L611.006 82.6285L575.67 80.1404C573.85 80.0123 573.007 79.0387 573.141 77.2196L573.225 76.0707C573.366 74.1559 574.346 73.2625 576.165 73.3906Z" fill="white"/>
</g>
<defs>
<filter id="filter0_dd" x="3.41405" y="32.5664" width="625.216" height="124.586" filterUnits="userSpaceOnUse" color-interpolation-filters="sRGB">
<feFlood flood-opacity="0" result="BackgroundImageFix"/>
<feColorMatrix in="SourceAlpha" type="matrix" values="0 0 0 0 0 0 0 0 0 0 0 0 0 0 0 0 0 0 127 0" result="hardAlpha"/>
<feOffset dx="5" dy="5"/>
<feGaussianBlur stdDeviation="2"/>
<feComposite in2="hardAlpha" operator="out"/>
<feColorMatrix type="matrix" values="0 0 0 0 1 0 0 0 0 1 0 0 0 0 1 0 0 0 0.25 0"/>
<feBlend mode="normal" in2="BackgroundImageFix" result="effect1_dropShadow"/>
<feColorMatrix in="SourceAlpha" type="matrix" values="0 0 0 0 0 0 0 0 0 0 0 0 0 0 0 0 0 0 127 0" result="hardAlpha"/>
<feOffset dy="4"/>
<feGaussianBlur stdDeviation="2"/>
<feComposite in2="hardAlpha" operator="out"/>
<feColorMatrix type="matrix" values="0 0 0 0 0 0 0 0 0 0 0 0 0 0 0 0 0 0 0.25 0"/>
<feBlend mode="normal" in2="effect1_dropShadow" result="effect2_dropShadow"/>
<feBlend mode="normal" in="SourceGraphic" in2="effect2_dropShadow" result="shape"/>
</filter>
</defs>
</svg>
